<?xml version="1.0" encoding="UTF-8"?>
<svg version="1.1" xmlns="http://www.w3.org/2000/svg" width="512" height="512">
<path d="M0 0 C23.25852542 19.6715775 37.19116743 43.47784168 40 74.375 C41.67473878 99.3785562 34.44163049 125.82824816 18.046875 145.05078125 C17.37140625 145.81777344 16.6959375 146.58476562 16 147.375 C15.32453125 148.19355469 14.6490625 149.01210937 13.953125 149.85546875 C-0.95350117 167.40067656 -22.37011365 178.59602869 -45 182.375 C-45.65355469 182.48585937 -46.30710937 182.59671875 -46.98046875 182.7109375 C-73.33956189 186.37054893 -100.17532412 179.75850885 -121.875 164.4375 C-123.60115053 163.10611933 -125.31012394 161.75213073 -127 160.375 C-127.83917969 159.69953125 -128.67835938 159.0240625 -129.54296875 158.328125 C-150.00473117 140.94355786 -161.58368377 115.35118696 -163.83984375 88.8515625 C-165.50178731 63.15224018 -157.61775201 36.67983878 -140.875 16.859375 C-138.62567262 14.32128262 -136.32933955 11.8396709 -134 9.375 C-133.4121875 8.73433594 -132.824375 8.09367187 -132.21875 7.43359375 C-98.73310814 -27.86848623 -37.56324744 -28.87142805 0 0 Z M-68 3.375 C-69.10514766 6.69044299 -69.32107631 9.57910111 -69.5625 13.0625 C-69.64628906 14.24199219 -69.73007812 15.42148437 -69.81640625 16.63671875 C-69.90728516 17.99216797 -69.90728516 17.99216797 -70 19.375 C-70.556875 19.59414063 -71.11375 19.81328125 -71.6875 20.0390625 C-82.8345504 24.67111385 -90.35216032 31.25026616 -95.375 42.4375 C-97.63026702 53.03725497 -97.37042048 62.75744172 -91.53125 72.24609375 C-86.04348112 79.87577243 -79.88356766 84.26425577 -71 87.375 C-70.34 87.375 -69.68 87.375 -69 87.375 C-69 101.235 -69 115.095 -69 129.375 C-78.03913783 123.72553885 -78.03913783 123.72553885 -79.875 119.625 C-80.26171875 118.76390625 -80.6484375 117.9028125 -81.046875 117.015625 C-82.21565907 113.7775183 -82.9470249 110.59043969 -83.4453125 107.1875 C-83.91299775 104.97561814 -83.91299775 104.97561814 -87 103.375 C-91.15402124 102.91642465 -91.15402124 102.91642465 -94.8125 104.625 C-97.23057358 108.18847685 -97.10950168 111.34690854 -96.4375 115.5 C-94.3526946 125.80058457 -88.4828721 133.3396451 -80 139.375 C-74.7807807 142.32346448 -74.7807807 142.32346448 -69 143.375 C-69.04640625 144.32761719 -69.0928125 145.28023437 -69.140625 146.26171875 C-69.19476563 148.14310547 -69.19476563 148.14310547 -69.25 150.0625 C-69.31960938 151.92455078 -69.31960938 151.92455078 -69.390625 153.82421875 C-68.93635161 157.95356382 -67.97925911 159.53480864 -65 162.375 C-61.95720628 163.04180368 -61.95720628 163.04180368 -59 162.375 C-56.96332385 160.82993534 -56.13926922 159.65353844 -55 157.375 C-54.92883618 155.00097499 -54.91590915 152.62499323 -54.9375 150.25 C-54.94652344 148.96867188 -54.95554687 147.68734375 -54.96484375 146.3671875 C-54.97644531 145.37976563 -54.98804688 144.39234375 -55 143.375 C-54.41992188 143.20484375 -53.83984375 143.0346875 -53.2421875 142.859375 C-43.67758649 139.89213904 -35.4693077 134.48560453 -30.6875 125.4375 C-26.52208625 116.15917494 -25.81893172 107.51345002 -29.03515625 97.8203125 C-32.08352984 90.09447498 -37.08311056 84.01877909 -44 79.375 C-47.3 78.055 -50.6 76.735 -54 75.375 C-54 61.845 -54 48.315 -54 34.375 C-45.53658537 39.21123693 -45.53658537 39.21123693 -43 44.375 C-42.19224864 47.72139849 -41.50072963 51.05833824 -40.90625 54.44921875 C-40.228808 57.44227354 -40.228808 57.44227354 -38.09765625 59.2734375 C-35.94281184 60.62041504 -35.94281184 60.62041504 -32.9375 60.3125 C-29.50174674 59.215983 -28.79127253 58.4328824 -27 55.375 C-25.89308962 46.15580125 -30.20490943 37.43820619 -35.6015625 30.23828125 C-40.58599417 24.79320305 -47.06891863 21.68536046 -54 19.375 C-54.02578125 18.42238281 -54.0515625 17.46976563 -54.078125 16.48828125 C-54.13484375 15.23402344 -54.1915625 13.97976562 -54.25 12.6875 C-54.29640625 11.44613281 -54.3428125 10.20476563 -54.390625 8.92578125 C-55.07764543 4.92256608 -56.12862029 3.19852338 -59 0.375 C-62.99377362 -0.42375472 -65.11400518 0.59207643 -68 3.375 Z " fill="#000000" transform="translate(423,19.625)"/>
<path d="M0 0 C0.69096771 -0.00067474 1.38193542 -0.00134949 2.09384155 -0.00204468 C13.03554354 0.01490398 23.46513362 0.67021499 34.125 3.25 C35.19451904 3.49145752 35.19451904 3.49145752 36.28564453 3.73779297 C59.69740573 9.10245143 81.12904979 20.40485171 99.125 36.25 C100.04925781 37.04148437 100.97351563 37.83296875 101.92578125 38.6484375 C108.40828335 44.33295525 113.89498393 50.40554274 119.125 57.25 C119.79144531 58.10078125 120.45789063 58.9515625 121.14453125 59.828125 C136.8362257 80.50278356 147.73909332 106.30326488 150.125 132.25 C150.23134766 133.39227051 150.23134766 133.39227051 150.33984375 134.55761719 C150.56553812 137.1204362 150.75758363 139.68358166 150.9375 142.25 C151.00300049 143.0642041 151.06850098 143.8784082 151.13598633 144.71728516 C151.40715232 149.47929703 151.20196768 152.34080037 148.125 156.25 C147.125 157.25 147.125 157.25 144.72181606 157.37304783 C143.10821744 157.37166514 143.10821744 157.37166514 141.46202087 157.37025452 C140.23217972 157.37162918 139.00233856 157.37300385 137.73522949 157.37442017 C136.35986304 157.37088056 134.98449683 157.36724574 133.60913086 157.36352539 C132.17057802 157.36324352 130.73202504 157.36340124 129.29347229 157.3639679 C125.37628857 157.36425589 121.45913521 157.35835884 117.54195857 157.35139394 C113.45266163 157.34516074 109.36336407 157.34455663 105.27406311 157.34336853 C97.52507602 157.34025511 89.77610297 157.33204159 82.02712208 157.32201904 C73.20743791 157.31085822 64.38775309 157.30534753 55.56806362 157.30032361 C37.42036777 157.28985898 19.27268501 157.27225934 1.125 157.25 C1.13057419 156.15269058 1.13614838 155.05538116 1.14189148 153.92481995 C1.14639989 152.47014403 1.15077197 151.01546769 1.1550293 149.56079102 C1.1590551 148.83933144 1.1630809 148.11787186 1.1672287 147.37454987 C1.17857897 142.20039688 0.88418917 137.26804475 -0.0625 132.1875 C-0.1963208 131.44129395 -0.3301416 130.69508789 -0.46801758 129.92626953 C-3.98895299 111.46832956 -11.87162153 94.68705314 -23.875 80.25 C-24.58398438 79.38890625 -25.29296875 78.5278125 -26.0234375 77.640625 C-38.96313863 62.59880635 -54.62587242 53.18789758 -73.05859375 46.44140625 C-75.875 45.25 -75.875 45.25 -76.875 43.25 C-76.0396875 42.66605469 -76.0396875 42.66605469 -75.1875 42.0703125 C-64.9536664 34.56780611 -56.91703388 24.74428397 -54.1953125 12.08984375 C-52.875 9.25 -52.875 9.25 -49.671875 7.67578125 C-48.33063153 7.27770448 -46.98072292 6.90806404 -45.625 6.5625 C-44.91279297 6.36172852 -44.20058594 6.16095703 -43.46679688 5.95410156 C-28.96004364 1.95734302 -15.04529988 0.01320411 0 0 Z " fill="#000000" transform="translate(207.875,354.75)"/>
<path d="M0 0 C18.69392739 15.94554866 32.86189196 37.66108511 35.94921875 62.515625 C36.12791968 65.57947551 36.17930909 68.63454938 36.19921875 71.703125 C36.23015625 72.91258789 36.23015625 72.91258789 36.26171875 74.14648438 C36.26945312 75.30954102 36.26945312 75.30954102 36.27734375 76.49609375 C36.28668945 77.19629639 36.29603516 77.89649902 36.30566406 78.61791992 C35.81097201 81.25164688 35.12936144 81.93546685 32.94921875 83.515625 C30.40352783 83.81453373 28.10091033 83.92908545 25.55409241 83.91003418 C24.79481066 83.91612528 24.03552891 83.92221639 23.25323862 83.92849207 C20.70130849 83.94518141 18.14987408 83.94033793 15.59790039 83.93554688 C13.77145364 83.94288377 11.94501154 83.95146888 10.11857605 83.96121216 C5.15166051 83.98347665 0.18491061 83.98635639 -4.78204799 83.98446465 C-8.92487875 83.98434517 -13.06767411 83.99289971 -17.21049505 84.00124216 C-26.98206942 84.02049391 -36.75355835 84.02335356 -46.52514648 84.01660156 C-56.61418528 84.00995865 -66.70285866 84.0328312 -76.79182333 84.06991529 C-85.44667326 84.10057664 -94.10140543 84.11197622 -102.75630862 84.10807848 C-107.92868932 84.10600733 -113.10078574 84.1115465 -118.27311516 84.13597107 C-123.1364619 84.1581769 -127.99921311 84.15641195 -132.86256218 84.13604355 C-134.64921528 84.13262257 -136.43590799 84.1377692 -138.22250748 84.15202713 C-140.65859642 84.1701294 -143.09264555 84.15754038 -145.52867126 84.13708496 C-146.23868992 84.14960281 -146.94870858 84.16212066 -147.68024296 84.17501783 C-151.40797488 84.10773127 -152.79345679 83.76976682 -155.48990726 81.10666656 C-160.34280859 73.05087913 -156.04844211 60.240265 -154.05078125 51.515625 C-147.58359559 26.40772774 -131.77489317 6.09576616 -109.71875 -7.37890625 C-75.54919705 -27.45046856 -31.1035157 -24.41771326 0 0 Z " fill="#000000" transform="translate(160.05078125,428.484375)"/>
<path d="M0 0 C14.91605606 12.79563633 22.22707691 29.73325773 23.86328125 48.9921875 C24.4232911 67.44303831 17.0487549 84.545327 4.5625 97.875 C-9.22383557 111.09477383 -26.63517535 116.77961195 -45.53125 116.4609375 C-62.7212782 115.77087675 -77.3575277 108.35386133 -89.375 96.1875 C-90.01050781 95.57390625 -90.64601562 94.9603125 -91.30078125 94.328125 C-102.37714029 82.83425354 -107.79005978 65.48852675 -107.5234375 49.7578125 C-106.48815555 31.83108822 -99.68059897 14.67008602 -86.3359375 2.296875 C-61.40000018 -18.9839575 -26.04087169 -19.7303537 0 0 Z " fill="#000000" transform="translate(250.375,224.8125)"/>
<path d="M0 0 C4.98977868 1.28479961 9.02344998 4.48833984 13.19042969 7.40869141 C15.2266076 8.78993341 17.26438858 10.16881497 19.30371094 11.54541016 C20.81698975 12.57480713 20.81698975 12.57480713 22.36083984 13.625 C27.31705405 16.93160003 32.42466791 19.97897227 37.55517578 23.00561523 C48.61596366 29.62122852 48.61596366 29.62122852 50.37792969 34.59619141 C50.3035844 38.164765 49.47806028 39.79278138 47.31542969 42.59619141 C44.33902998 44.08439126 42.66012131 43.98879629 39.31542969 43.59619141 C36.01887994 42.0271107 32.99954478 40.08193278 29.94042969 38.09619141 C29.10898437 37.57154297 28.27753906 37.04689453 27.42089844 36.50634766 C25.37781886 35.21474562 23.34342407 33.91130347 21.31542969 32.59619141 C21.69054687 33.48435547 22.06566406 34.37251953 22.45214844 35.28759766 C34.2369244 64.29865861 37.61176758 98.97517226 30.31542969 129.59619141 C30.11675293 130.43263184 29.91807617 131.26907227 29.71337891 132.13085938 C23.16385063 158.74598366 10.95980494 182.25287176 -7.70800781 202.42822266 C-9.82010065 204.68712386 -9.82010065 204.68712386 -12.05957031 207.65869141 C-16.13037165 212.21411195 -20.88254835 215.83916904 -25.68457031 219.59619141 C-27.11542969 220.73314453 -27.11542969 220.73314453 -28.57519531 221.89306641 C-35.91485135 227.58424355 -43.52625192 232.2147 -51.68457031 236.59619141 C-52.66039062 237.13115234 -53.63621094 237.66611328 -54.64160156 238.21728516 C-60.45032483 241.27659905 -66.40709271 243.76605074 -72.55957031 246.03369141 C-73.27346924 246.3052002 -73.98736816 246.57670898 -74.72290039 246.85644531 C-79.08194173 248.39938725 -82.09212335 248.89061424 -86.68457031 247.59619141 C-89.27648218 245.89804225 -89.64865827 244.71418811 -90.55957031 241.72119141 C-90.71651058 237.79768478 -90.16013696 236.63611137 -87.68457031 233.59619141 C-84.96622721 232.1834849 -82.10139119 231.32487419 -79.18457031 230.40869141 C-57.33883182 222.92704451 -39.00773117 210.77380967 -22.68457031 194.59619141 C-21.89566406 193.82017578 -21.10675781 193.04416016 -20.29394531 192.24462891 C4.57009024 166.21788665 18.09776032 128.53975929 17.59887695 92.76269531 C17.04446262 75.06746345 13.52325055 58.01995889 7.01464844 41.52978516 C6.31542969 39.59619141 6.31542969 39.59619141 6.31542969 37.59619141 C5.65542969 37.59619141 4.99542969 37.59619141 4.31542969 37.59619141 C4.33114014 38.29703857 4.34685059 38.99788574 4.36303711 39.7199707 C4.42555381 42.90779492 4.46447349 46.09548992 4.50292969 49.28369141 C4.52806641 50.38648438 4.55320312 51.48927734 4.57910156 52.62548828 C4.58876953 53.6921875 4.5984375 54.75888672 4.60839844 55.85791016 C4.62410889 56.83719482 4.63981934 57.81647949 4.65600586 58.82543945 C4.21961811 62.37566496 2.86048598 65.05113512 0.31542969 67.59619141 C-5.41668812 68.16000627 -5.41668812 68.16000627 -7.68457031 67.59619141 C-10.67885521 64.71266538 -11.6293316 63.12885805 -12.06274414 58.94946289 C-12.02696079 57.53803752 -11.96858907 56.12706349 -11.89160156 54.71728516 C-11.86661591 53.95634048 -11.84163025 53.19539581 -11.81588745 52.41139221 C-11.73003839 49.95089186 -11.61455961 47.49286701 -11.49707031 45.03369141 C-11.42957014 43.3495061 -11.36357324 41.66525987 -11.29907227 39.98095703 C-11.16946391 36.6774763 -11.02790883 33.3748365 -10.87695312 30.07226562 C-10.70981203 26.3424266 -10.59924335 22.61423464 -10.52050781 18.88134766 C-10.47154933 17.11961436 -10.42212943 15.35789377 -10.37207031 13.59619141 C-10.36216064 12.82847412 -10.35225098 12.06075684 -10.34204102 11.26977539 C-10.20946633 7.90797675 -9.68665396 5.60024265 -8.14160156 2.59619141 C-5.39623604 0.36149006 -3.54788982 -0.23843786 0 0 Z " fill="#000000" transform="translate(458.6845703125,205.40380859375)"/>
<path d="M0 0 C9.51427496 10.00428053 11.63134166 21.2986016 11.40625 34.59765625 C10.88060005 47.37719533 4.7691529 55.99952002 -4.2421875 64.5390625 C-12.50777369 71.5739015 -22.96903691 74.79689592 -33.8203125 74.40625 C-45.35891943 73.39331886 -56.95439023 68.99369778 -64.8671875 60.2265625 C-73.07326971 49.91431875 -76.86621405 38.36191157 -75.8671875 25.2265625 C-74.55660172 16.80771488 -71.68972669 10.20825463 -66.8671875 3.2265625 C-66.2896875 2.3396875 -65.7121875 1.4528125 -65.1171875 0.5390625 C-46.69820487 -18.39155853 -18.80789707 -17.86356751 0 0 Z " fill="#000000" transform="translate(131.8671875,320.7734375)"/>
<path d="M0 0 C2.625 2.0625 2.625 2.0625 4 5 C3.94061257 8.44447096 3.88365418 10.88110455 1.70507812 13.63964844 C-0.29682899 15.23681718 -1.71669777 15.63826152 -4.21875 16.140625 C-5.05881592 16.32004639 -5.89888184 16.49946777 -6.7644043 16.68432617 C-8.11852417 16.96433472 -8.11852417 16.96433472 -9.5 17.25 C-32.4748782 22.41238342 -52.96579028 31.72231456 -71 47 C-71.50724609 47.42893555 -72.01449219 47.85787109 -72.53710938 48.29980469 C-94.4229635 67.00957478 -110.60617798 92.09102035 -118 120 C-118.19464844 120.71687988 -118.38929687 121.43375977 -118.58984375 122.17236328 C-122.65471416 137.81746498 -125.84748632 161.16943195 -121 177 C-120.87471924 176.41508789 -120.74943848 175.83017578 -120.62036133 175.22753906 C-120.03783479 172.56350387 -119.42555211 169.90716913 -118.8125 167.25 C-118.61591797 166.32960937 -118.41933594 165.40921875 -118.21679688 164.4609375 C-117.21836889 160.22145868 -116.55589589 157.6002257 -113.55078125 154.35546875 C-109.97144086 152.45343029 -107.84406009 152.93220553 -104 154 C-102.0625 155.0625 -102.0625 155.0625 -101 157 C-100.5148063 163.97138792 -101.98501491 170.1010692 -103.703125 176.83203125 C-104.12171783 178.50237679 -104.12171783 178.50237679 -104.54876709 180.20646667 C-105.13910373 182.54830857 -105.73443452 184.88889656 -106.33447266 187.22827148 C-107.25034936 190.8138677 -108.13955137 194.40540778 -109.02734375 197.99804688 C-109.605163 200.27645003 -110.18453639 202.55445973 -110.765625 204.83203125 C-111.02933899 205.9070137 -111.29305298 206.98199615 -111.5647583 208.08955383 C-111.82472595 209.08456406 -112.0846936 210.07957428 -112.35253906 211.10473633 C-112.57460022 211.97995438 -112.79666138 212.85517242 -113.02545166 213.75691223 C-114.2211478 216.50900906 -115.43023011 217.49396039 -118 219 C-121.3125 219.625 -121.3125 219.625 -125 219 C-126.94232045 217.51030174 -128.48133419 215.88789714 -130.1015625 214.05444336 C-131.84435127 212.1684393 -133.62276959 210.54070371 -135.5859375 208.890625 C-140.71496099 204.45744278 -145.43184294 199.63908408 -150.1875 194.8125 C-151.92857892 193.04579814 -153.67199183 191.28139273 -155.41796875 189.51953125 C-156.17875732 188.74714111 -156.9395459 187.97475098 -157.72338867 187.17895508 C-160.00666562 184.92566805 -160.00666562 184.92566805 -162.72387695 182.8425293 C-165 181 -165 181 -166 179 C-166.45070423 171.90140845 -166.45070423 171.90140845 -165 169 C-161.61532122 167.30766061 -158.60398376 167.11196803 -155 168 C-151.9295465 169.94018814 -149.52444609 172.40503866 -147 175 C-146.17371094 175.8146875 -145.34742188 176.629375 -144.49609375 177.46875 C-142.31233907 179.62858248 -140.14928057 181.80594276 -138 184 C-138.0721875 183.195625 -138.144375 182.39125 -138.21875 181.5625 C-142.04795872 133.05918956 -131.31305029 89.0565756 -99.65478516 51.39990234 C-93.40048634 44.12163972 -86.62152813 37.84957621 -79 32 C-77.65035156 30.90945312 -77.65035156 30.90945312 -76.2734375 29.796875 C-59.25974951 16.39215113 -39.21950418 7.38240817 -18.3125 2 C-17.51150879 1.79205811 -16.71051758 1.58411621 -15.88525391 1.36987305 C-10.67784875 0.12656558 -5.3502856 -0.76609647 0 0 Z " fill="#000000" transform="translate(214,78)"/>
<path d="M0 0 C7.89578544 3.38390805 7.89578544 3.38390805 10.375 7 C10.85710937 7.680625 11.33921875 8.36125 11.8359375 9.0625 C14.96224496 14.26601846 14.51412027 20.13604852 14 26 C12.41145056 32.10124404 8.83671447 35.39885917 3.8046875 38.96875 C2 40 2 40 0 40 C0 26.8 0 13.6 0 0 Z " fill="#000000" transform="translate(368,109)"/>
<path d="M0 0 C0 13.2 0 26.4 0 40 C-5.9775 37.609 -9.41559977 35.6586001 -12.3125 29.875 C-14.60480279 24.1769902 -15.11854432 18.72627487 -13.33984375 12.80078125 C-11.32602897 8.22392949 -5.73137183 0 0 0 Z " fill="#000000" transform="translate(354,53)"/>
</svg>
